#N canvas -118 23 986 799 10;
#X obj 1068 873 udpreceive 6255;
#X obj 1067 895 bytes2any 128 -1;
#X floatatom 1065 918 10 0 0 0 - - -;
#X obj 1632 772 hsl 128 15 0 127 0 0 pitchess empty empty -2 -8 0 10
-262144 -1 -1 914 1;
#X obj 1066 939 * 127;
#X obj 1048 987 line;
#X obj 1058 967 \$1 \$1;
#X msg 1095 967 200;
#X obj 1233 893 bytes2any 128 -1;
#X floatatom 1231 916 10 0 0 0 - - -;
#X obj 1222 991 line;
#X obj 1232 967 \$1 \$1;
#X obj 1234 871 udpreceive 6256;
#X obj 1594 798 hsl 128 15 -100 100 0 0 timbres empty empty -2 -8 0
10 -262144 -1 -1 4135 1;
#X msg 1270 967 200;
#X text 1070 834 pitches;
#X text 1238 834 timbres;
#X floatatom 1212 1264 0 0 99 1 index - -;
#X floatatom 1089 1097 0 0 0 0 value - pitches;
#N canvas 0 22 450 300 (subpatch) 0;
#X array \$0-pitches_array 1000 float 0;
#X coords 0 0 999 1 500 70 1 0 0;
#X restore 153 224 graph;
#N canvas 0 22 450 300 (subpatch) 0;
#X array \$0-timbres_array 1000 float 0;
#X coords 0 -100 999 100 500 70 1 0 0;
#X restore 153 323 graph;
#X text 1314 1194 Click below to view the table:;
#X obj 1122 1060 bng 15 250 50 0 empty empty empty 17 7 0 10 -4034
-1 -1;
#X obj 1122 1080 f \$0;
#X obj 1316 1215 table \$0-tabwrite_table;
#X obj 1137 940 change;
#X obj 1064 1050 / 127;
#X obj 1489 1356 tabwrite another_array;
#X obj 1533 1281 bng 15 250 50 0 empty empty empty 17 7 0 10 -4034
-1 -1;
#X obj 1533 1301 f \$0;
#X obj 1316 923 change;
#X obj 1146 968 counter 1000;
#X obj 1325 951 counter 1000;
#X obj 1101 949 loadbang;
#X obj 1271 947 loadbang;
#X obj 1699 1056 random 127;
#X obj 1495 973 + 100;
#X obj 1677 984 tgl 15 0 empty empty empty 17 7 0 10 -262130 -1 -1
0 1;
#X floatatom 1703 1129 5 0 0 0 - - -;
#X floatatom 1495 993 5 0 0 0 - - timbres;
#X obj 1703 1199 noteout 1;
#X obj 1709 1103 + 20;
#X obj 1662 1177 + 12;
#X floatatom 1425 947 5 0 0 0 - - -;
#X obj 1703 1157 makenote 127 127;
#X obj 1679 1027 metro 100;
#X obj 1914 1050 random 127;
#X floatatom 1918 1123 5 0 0 0 - - -;
#X obj 1924 1097 + 20;
#X obj 1877 1171 + 12;
#X obj 1918 1151 makenote 127 127;
#X obj 1894 1021 metro 100;
#X obj 1918 1193 noteout 2;
#X obj 2092 1197;
#X obj 2142 1164 makenote 127 127;
#X obj 2142 1206 noteout 3;
#X obj 2011 1236 noteout 4;
#X obj 1712 1275 noteout 5;
#X obj 2160 1005 metro 800;
#X obj 2271 1005 del 600;
#X obj 2323 1005 del 400;
#X msg 2277 1037 39;
#X msg 2329 1037 38;
#X msg 2203 1080 45;
#X obj 2019 1036 metro 400;
#X obj 2108 1292 makenote 127 127;
#X obj 2108 1334 noteout 6;
#X msg 2093 1245 36;
#X msg 2383 1037 49;
#X obj 2377 1005 del 200;
#X msg 2456 1041 50;
#X obj 1855 1297 noteout 7;
#X text 1665 965 remix 1;
#X text 2555 871 remix 2;
#X obj 2489 1361 noteout 8;
#X obj 2570 1098 metro 100;
#X obj 676 59 tgl 15 0 empty empty empty 17 7 0 10 -262130 -1 -1 1
1;
#X obj 2492 1217 change;
#X obj 2496 1175 random;
#X obj 2576 1199 + 40;
#X obj 2478 1290 + 12;
#X msg 2437 1270 24;
#X msg 2438 1247 12;
#X obj 2401 1227 sel 0 1;
#X obj 2395 1207 random 2;
#X obj 2760 981 + 2;
#X obj 2743 946 random 10;
#X msg 2817 937 10;
#X msg 2818 958 2;
#X msg 2819 978 1;
#X msg 2818 916 14;
#X obj 2588 817 metro 10000;
#X obj 2651 863 random 4;
#X obj 2653 891 sel 0 1 2 3 4;
#X floatatom 2742 891 5 0 0 0 - - -;
#X obj 2610 1276 spigot;
#X obj 2658 1260 tgl 15 0 empty empty empty 17 7 0 10 -262144 -1 -1
1 1;
#X obj 2670 1208 random 2;
#X obj 2596 1307 + 36;
#X obj 2296 1164 moses 127;
#X floatatom 2289 1196 5 0 0 0 - - -;
#X floatatom 2348 1192 5 0 0 0 - - -;
#X floatatom 2618 1233 5 0 0 0 - - -;
#X obj 2607 1201 moses 127;
#X obj 2502 1236 makenote 127 2270;
#X obj 1805 855 PRINT;
#X obj 2007 854 PRINT;
#X obj 1902 855 PRINT;
#X obj 1606 854 PRINT;
#N canvas 422 22 1040 799 section1 0;
#X obj 71 60 list;
#X obj 53 -7 udpreceive 6257;
#X text 182 24 58;
#X obj 192 -87 route;
#X obj 71 98 list trim;
#X obj 379 276 route /'duration': /'confidence':;
#X obj 398 371 symbol tofloat;
#X obj 418 411 list;
#X obj 93 203 print c;
#X obj 325 92 unpack float;
#X obj 309 255 print e;
#X floatatom 219 139 5 0 0 0 - - -;
#X msg -186 666 1;
#X obj 490 105 pack;
#X obj -109 -5 unpack \$1;
#X floatatom 574 120 5 0 0 0 - - -;
#X floatatom 617 123 5 0 0 0 - - -;
#X floatatom 672 117 5 0 0 0 - - -;
#X obj 561 53 route f f f f f f f f f;
#X obj 69 18 bytes2any 128 58;
#X obj 352 154 symbol tofloat;
#X obj 139 314 route;
#X obj -131 211 any2bytes 128 -1;
#X obj -128 259 list trim;
#X obj 87 141 bng 15 250 50 0 empty empty empty 17 7 0 10 -262144 -1
-1;
#X obj 88 164 list;
#X obj -128 236 bytes2any 128 39;
#X obj -127 280 any2bytes 128 -1;
#X obj -126 305 bytes2any 128 44;
#X obj -128 335 route confidence start loudness tempo_confidence key
key_confidence mode mode_confidence time_signature time_signature_confidence
duration tempo;
#X obj -134 394 any2bytes 128 -1;
#X obj -52 417 bytes2any 128 123;
#X obj -133 510 route bang;
#X obj -50 438 any2bytes 128 -1;
#X obj -48 466 bytes2any 128 125;
#X obj 145 481 print;
#X obj -317 306 print;
#X obj 134 654 print b;
#X obj 69 643 print c;
#X obj 359 486 qlist;
#X obj 427 528 unpack f f f f;
#X floatatom 437 565 5 0 0 0 - - -;
#X floatatom 473 569 5 0 0 0 - - -;
#X floatatom 508 570 5 0 0 0 - - -;
#X obj -129 549 route f f f f f f f;
#X obj 144 462 pack;
#X obj -111 110 list trim;
#X msg 292 -13 1;
#X floatatom 254 630 5 0 0 0 - - -;
#X floatatom 302 630 5 0 0 0 - - -;
#X floatatom 343 634 5 0 0 0 - - -;
#X obj 255 600 unpack f f f f;
#X obj -229 556 list;
#X obj 73 497 list length;
#X floatatom 91 527 5 0 0 0 - - -;
#X obj 344 514 print b;
#X obj -191 596 list append f f f f;
#X msg -163 741;
#X obj -68 727 outlet;
#X obj -235 371 print;
#X obj -97 632 list trim;
#X obj 37 37 scrollist;
#X floatatom -219 792 5 0 0 0 - - -;
#X obj -78 801 change;
#X obj -159 862 tabwrite sectionone;
#X obj -65 823 t b;
#X floatatom -25 846 5 0 0 0 - - -;
#X obj -22 823 int;
#X obj 17 828 + 1;
#X msg -22 795 0;
#X floatatom -295 937 5 0 0 0 - - -;
#X floatatom -166 938 5 0 0 0 - - loudness1;
#X floatatom -37 938 5 0 0 0 - - tempo1;
#X floatatom 102 942 5 0 0 0 - - tempoconf1;
#X obj -295 915 tabread sectionone;
#X msg -160 895 1;
#X msg -263 876 0;
#X obj -166 916 tabread sectionone;
#X obj -36 915 tabread sectionone;
#X obj 92 917 tabread sectionone;
#X msg -21 894 2;
#X msg 100 896 3;
#X obj 545 847 loadbang;
#X msg 62 855 bang;
#X obj 216 915 tabread sectionone;
#X obj 346 914 tabread sectionone;
#X obj 474 916 tabread sectionone;
#X msg 222 894 4;
#X msg 361 893 5;
#X msg 482 895 6;
#X floatatom 217 935 5 0 0 0 - - -;
#X floatatom 347 938 5 0 0 0 - - -;
#X floatatom 478 937 5 0 0 0 - - -;
#X obj 91 828 inlet;
#X obj 168 833 r sec;
#X floatatom 602 936 5 0 0 0 - - -;
#X obj 602 914 tabread sectionone;
#X obj 726 912 tabread sectionone;
#X obj 856 911 tabread sectionone;
#X obj 984 913 tabread sectionone;
#X floatatom 727 932 5 0 0 0 - - -;
#X floatatom 857 935 5 0 0 0 - - -;
#X floatatom 988 934 5 0 0 0 - - -;
#X msg 610 893 7;
#X msg 732 891 8;
#X msg 871 890 9;
#X msg 992 892 10;
#X text -260 933 ignore;
#X floatatom -299 978 5 0 0 0 - - start2;
#X floatatom -170 979 5 0 0 0 - - dur2;
#X floatatom -37 974 5 0 0 0 - - loudness2;
#X floatatom 0 974 0 0 0 0 - loudness2 -;
#X floatatom 226 978 5 0 0 0 - - -;
#X floatatom 343 979 5 0 0 0 - - mode2;
#X floatatom 474 978 5 0 0 0 - - key2;
#X floatatom 589 979 5 0 0 0 - - keyconf2;
#X floatatom 718 980 5 0 0 0 - - modeconf2;
#X floatatom 843 976 5 0 0 0 - - modeconf2;
#X floatatom 973 979 5 0 0 0 - - timesigconf2;
#X floatatom 1104 978 5 0 0 0 - - sigconf2;
#X floatatom 114 992 5 0 0 0 - - tempo2;
#X floatatom -258 981 5 0 0 0 - - -;
#X floatatom -130 978 5 0 0 0 - - -;
#X floatatom 153 981 5 0 0 0 - - -;
#X msg 592 1089 12.2646 0.45 -14.555 131.916 0.623 8 0.348 0 0.437
4 1;
#X floatatom 394 977 5 0 0 0 - - -;
#X floatatom 511 977 5 0 0 0 - - -;
#X floatatom 626 976 5 0 0 0 - - -;
#X floatatom 755 979 5 0 0 0 - - -;
#X floatatom 879 978 5 0 0 0 - - -;
#X obj 594 1043 pack \$1 \$2 \$3 \$4 \$5 \$6 \$7 \$8 \$9 \$10 \$11
;
#X floatatom 1011 979 5 0 0 0 - - -;
#X msg 594 1064 set \$1 \$2 \$3 \$4 \$5 \$6 \$7 \$8 \$9 \$10 \$11;
#X obj 533 1078 s s1;
#X obj 526 684 t l l b;
#X obj 672 735 t l l;
#X obj 672 694 del 250;
#X msg 672 714 list might get lost;
#X obj 524 788 pipe s 1500;
#X obj 526 760 drip 200 flush;
#X obj 664 770 drip 200;
#X connect 0 0 4 0;
#X connect 1 0 19 0;
#X connect 4 0 22 0;
#X connect 6 0 7 0;
#X connect 9 0 13 0;
#X connect 9 0 18 0;
#X connect 18 0 15 0;
#X connect 18 1 16 0;
#X connect 18 2 17 0;
#X connect 19 0 0 0;
#X connect 22 0 26 0;
#X connect 23 0 27 0;
#X connect 24 0 25 0;
#X connect 25 0 8 0;
#X connect 26 0 23 0;
#X connect 27 0 28 0;
#X connect 28 0 29 0;
#X connect 29 12 30 0;
#X connect 30 0 31 0;
#X connect 31 0 33 0;
#X connect 32 1 44 0;
#X connect 33 0 34 0;
#X connect 34 0 58 0;
#X connect 34 0 62 0;
#X connect 34 0 134 0;
#X connect 39 0 55 0;
#X connect 40 0 41 0;
#X connect 40 1 42 0;
#X connect 40 2 43 0;
#X connect 45 0 35 0;
#X connect 46 0 47 0;
#X connect 51 0 48 0;
#X connect 51 1 49 0;
#X connect 51 2 50 0;
#X connect 52 0 56 0;
#X connect 52 0 60 0;
#X connect 53 0 54 0;
#X connect 56 0 12 0;
#X connect 56 0 46 0;
#X connect 60 0 58 0;
#X connect 63 0 65 0;
#X connect 65 0 67 0;
#X connect 66 0 64 1;
#X connect 67 0 68 0;
#X connect 67 0 66 0;
#X connect 68 0 67 1;
#X connect 69 0 67 0;
#X connect 70 0 108 0;
#X connect 74 0 70 0;
#X connect 75 0 77 0;
#X connect 76 0 74 0;
#X connect 77 0 71 0;
#X connect 77 0 122 0;
#X connect 78 0 72 0;
#X connect 78 0 130 2;
#X connect 79 0 73 0;
#X connect 79 0 123 0;
#X connect 80 0 78 0;
#X connect 81 0 79 0;
#X connect 82 0 81 0;
#X connect 82 0 80 0;
#X connect 82 0 75 0;
#X connect 82 0 76 0;
#X connect 82 0 87 0;
#X connect 82 0 88 0;
#X connect 82 0 89 0;
#X connect 82 0 103 0;
#X connect 82 0 104 0;
#X connect 82 0 105 0;
#X connect 82 0 106 0;
#X connect 83 0 82 0;
#X connect 85 0 91 0;
#X connect 86 0 92 0;
#X connect 87 0 84 0;
#X connect 88 0 85 0;
#X connect 89 0 86 0;
#X connect 90 0 112 0;
#X connect 91 0 125 0;
#X connect 92 0 126 0;
#X connect 93 0 83 0;
#X connect 94 0 83 0;
#X connect 95 0 127 0;
#X connect 96 0 95 0;
#X connect 98 0 101 0;
#X connect 99 0 102 0;
#X connect 100 0 128 0;
#X connect 101 0 129 0;
#X connect 102 0 131 0;
#X connect 103 0 96 0;
#X connect 104 0 97 0;
#X connect 105 0 98 0;
#X connect 106 0 99 0;
#X connect 111 0 130 2;
#X connect 112 0 130 4;
#X connect 121 0 130 0;
#X connect 122 0 130 1;
#X connect 123 0 130 3;
#X connect 125 0 130 5;
#X connect 126 0 130 6;
#X connect 127 0 130 7;
#X connect 128 0 130 8;
#X connect 129 0 130 9;
#X connect 130 0 132 0;
#X connect 131 0 130 10;
#X connect 132 0 124 0;
#X connect 132 0 133 0;
#X connect 134 0 139 0;
#X connect 134 1 140 0;
#X connect 134 2 136 0;
#X connect 135 0 139 0;
#X connect 135 1 140 0;
#X connect 136 0 137 0;
#X connect 137 0 135 0;
#X connect 139 0 138 0;
#X connect 140 0 64 0;
#X connect 140 0 63 0;
#X restore 1342 885 pd section1;
#X obj 1122 1042 loadbang;
#X obj 1533 1260 loadbang;
#X obj 2589 1356 + 18;
#X obj 1011 808 print;
#N canvas 0 22 450 278 (subpatch) 0;
#X coords 0 -40 12 140 200 40 1 0 0;
#X restore 2061 301 graph;
#N canvas 0 22 450 278 (subpatch) 0;
#X array sectiontwo 12 float 4;
#X coords 0 -40 11 140 200 40 1 0 0;
#X restore 2061 359 graph;
#N canvas 0 22 1440 799 section2 0;
#X obj 71 60 list;
#X text 182 24 58;
#X obj 192 -87 route;
#X obj 71 98 list trim;
#X obj 379 276 route /'duration': /'confidence':;
#X obj 398 371 symbol tofloat;
#X obj 418 411 list;
#X obj 93 203 print c;
#X obj 325 92 unpack float;
#X obj 309 255 print e;
#X floatatom 219 139 5 0 0 0 - - -;
#X msg -186 666 1;
#X obj 490 105 pack;
#X obj -109 -5 unpack \$1;
#X floatatom 574 120 5 0 0 0 - - -;
#X floatatom 617 123 5 0 0 0 - - -;
#X floatatom 672 117 5 0 0 0 - - -;
#X obj 561 53 route f f f f f f f f f;
#X obj 69 18 bytes2any 128 58;
#X obj 352 154 symbol tofloat;
#X obj 139 314 route;
#X obj -131 211 any2bytes 128 -1;
#X obj -128 259 list trim;
#X obj 87 141 bng 15 250 50 0 empty empty empty 17 7 0 10 -262144 -1
-1;
#X obj 88 164 list;
#X obj -128 236 bytes2any 128 39;
#X obj -127 280 any2bytes 128 -1;
#X obj -126 305 bytes2any 128 44;
#X obj -128 335 route confidence start loudness tempo_confidence key
key_confidence mode mode_confidence time_signature time_signature_confidence
duration tempo;
#X obj -134 394 any2bytes 128 -1;
#X obj -52 417 bytes2any 128 123;
#X obj -133 510 route bang;
#X obj -50 438 any2bytes 128 -1;
#X obj -48 466 bytes2any 128 125;
#X obj 145 481 print;
#X obj -317 306 print;
#X obj 134 654 print b;
#X obj 69 643 print c;
#X obj 359 486 qlist;
#X obj 427 528 unpack f f f f;
#X floatatom 437 565 5 0 0 0 - - -;
#X floatatom 473 569 5 0 0 0 - - -;
#X floatatom 508 570 5 0 0 0 - - -;
#X obj -129 549 route f f f f f f f;
#X obj 144 462 pack;
#X obj -111 110 list trim;
#X msg 292 -13 1;
#X floatatom 254 630 5 0 0 0 - - -;
#X floatatom 302 630 5 0 0 0 - - -;
#X floatatom 343 634 5 0 0 0 - - -;
#X obj 255 600 unpack f f f f;
#X obj -229 556 list;
#X obj 73 497 list length;
#X floatatom 91 527 5 0 0 0 - - -;
#X obj 344 514 print b;
#X obj -191 596 list append f f f f;
#X msg -163 741;
#X obj -68 727 outlet;
#X obj -235 371 print;
#X obj -97 632 list trim;
#X floatatom -219 792 5 0 0 0 - - -;
#X obj -79 823 change;
#X obj -66 845 t b;
#X floatatom -26 868 5 0 0 0 - - -;
#X obj -31 858 int;
#X obj 16 850 + 1;
#X msg -23 817 0;
#X obj 53 -7 udpreceive 6258;
#X obj -160 884 tabwrite sectiontwo;
#X floatatom 33 939 5 0 0 0 - - start2;
#X floatatom 162 940 5 0 0 0 - - dur2;
#X floatatom 295 935 5 0 0 0 - - loudness2;
#X floatatom 332 935 0 0 0 0 - loudness2 -;
#X msg 168 897 1;
#X msg 38 893 0;
#X msg 307 896 2;
#X msg 428 898 3;
#X obj 379 880 loadbang;
#X msg 390 857 bang;
#X msg 550 896 4;
#X msg 689 895 5;
#X msg 810 897 6;
#X floatatom 558 939 5 0 0 0 - - -;
#X floatatom 675 940 5 0 0 0 - - mode2;
#X floatatom 806 939 5 0 0 0 - - key2;
#X obj 33 918 tabread sectiontwo;
#X obj 162 918 tabread sectiontwo;
#X obj 292 917 tabread sectiontwo;
#X obj 421 920 tabread sectiontwo;
#X obj 544 917 tabread sectiontwo;
#X obj 674 916 tabread sectiontwo;
#X obj 803 918 tabread sectiontwo;
#X obj 381 829 inlet;
#X obj 158 823 r sec;
#X floatatom 921 940 5 0 0 0 - - keyconf2;
#X floatatom 1050 941 5 0 0 0 - - modeconf2;
#X floatatom 1175 937 5 0 0 0 - - modeconf2;
#X floatatom 1305 940 5 0 0 0 - - timesigconf2;
#X floatatom 1436 939 5 0 0 0 - - sigconf2;
#X obj 922 917 tabread sectiontwo;
#X obj 1051 920 tabread sectiontwo;
#X obj 1174 917 tabread sectiontwo;
#X obj 1304 916 tabread sectiontwo;
#X obj 1433 918 tabread sectiontwo;
#X msg 937 896 7;
#X msg 1058 898 8;
#X msg 1180 896 9;
#X msg 1319 895 10;
#X msg 1440 897 11;
#X obj 21 739 drip;
#X obj 516 674 t l l b;
#X obj 662 725 t l l;
#X obj 662 684 del 250;
#X msg 662 704 list might get lost;
#X obj 516 821 print TIGHT;
#X obj 757 835 print LOOSE;
#X obj 514 778 pipe s 1500;
#X obj 516 750 drip 200 flush;
#X obj 654 760 drip 200;
#X floatatom 446 953 5 0 0 0 - - tempo2;
#X floatatom 850 591 5 0 0 0 - - -;
#X obj 874 629 fifo;
#X floatatom 873 669 5 0 0 0 - - -;
#X obj 918 670 print;
#X obj 845 559 unpack f;
#X obj 692 507 route f;
#X floatatom 705 534 5 0 0 0 - - -;
#X floatatom 647 534 5 0 0 0 - - -;
#X floatatom 74 942 5 0 0 0 - - -;
#X floatatom 202 939 5 0 0 0 - - -;
#X floatatom 494 943 5 0 0 0 - - -;
#X msg 924 1050 0 0 0 0 0 0 0 0 0 0 0;
#X floatatom 726 938 5 0 0 0 - - -;
#X floatatom 843 938 5 0 0 0 - - -;
#X floatatom 958 937 5 0 0 0 - - -;
#X floatatom 1087 940 5 0 0 0 - - -;
#X floatatom 1211 939 5 0 0 0 - - -;
#X obj 926 1004 pack \$1 \$2 \$3 \$4 \$5 \$6 \$7 \$8 \$9 \$10 \$11
;
#X floatatom 1343 940 5 0 0 0 - - -;
#X msg 926 1025 set \$1 \$2 \$3 \$4 \$5 \$6 \$7 \$8 \$9 \$10 \$11;
#X obj 865 1039 s s2;
#X connect 0 0 3 0;
#X connect 3 0 21 0;
#X connect 5 0 6 0;
#X connect 8 0 12 0;
#X connect 8 0 17 0;
#X connect 17 0 14 0;
#X connect 17 1 15 0;
#X connect 17 2 16 0;
#X connect 18 0 0 0;
#X connect 21 0 25 0;
#X connect 22 0 26 0;
#X connect 23 0 24 0;
#X connect 24 0 7 0;
#X connect 25 0 22 0;
#X connect 26 0 27 0;
#X connect 27 0 28 0;
#X connect 28 12 29 0;
#X connect 29 0 30 0;
#X connect 30 0 32 0;
#X connect 31 1 43 0;
#X connect 32 0 33 0;
#X connect 33 0 57 0;
#X connect 33 0 60 0;
#X connect 33 0 110 0;
#X connect 33 0 125 0;
#X connect 38 0 54 0;
#X connect 39 0 40 0;
#X connect 39 1 41 0;
#X connect 39 2 42 0;
#X connect 44 0 34 0;
#X connect 45 0 46 0;
#X connect 50 0 47 0;
#X connect 50 1 48 0;
#X connect 50 2 49 0;
#X connect 51 0 55 0;
#X connect 51 0 59 0;
#X connect 52 0 53 0;
#X connect 55 0 11 0;
#X connect 55 0 45 0;
#X connect 59 0 57 0;
#X connect 61 0 62 0;
#X connect 62 0 64 0;
#X connect 63 0 68 1;
#X connect 64 0 65 0;
#X connect 64 0 63 0;
#X connect 65 0 64 1;
#X connect 66 0 64 0;
#X connect 67 0 18 0;
#X connect 72 0 137 2;
#X connect 73 0 86 0;
#X connect 74 0 85 0;
#X connect 75 0 87 0;
#X connect 76 0 88 0;
#X connect 77 0 76 0;
#X connect 77 0 75 0;
#X connect 77 0 73 0;
#X connect 77 0 74 0;
#X connect 77 0 79 0;
#X connect 77 0 80 0;
#X connect 77 0 81 0;
#X connect 77 0 104 0;
#X connect 77 0 105 0;
#X connect 77 0 106 0;
#X connect 77 0 107 0;
#X connect 77 0 108 0;
#X connect 78 0 77 0;
#X connect 79 0 89 0;
#X connect 80 0 90 0;
#X connect 81 0 91 0;
#X connect 82 0 137 4;
#X connect 85 0 69 0;
#X connect 85 0 128 0;
#X connect 86 0 70 0;
#X connect 86 0 129 0;
#X connect 87 0 71 0;
#X connect 88 0 119 0;
#X connect 88 0 130 0;
#X connect 89 0 82 0;
#X connect 90 0 83 0;
#X connect 90 0 132 0;
#X connect 91 0 84 0;
#X connect 91 0 133 0;
#X connect 92 0 78 0;
#X connect 93 0 78 0;
#X connect 99 0 94 0;
#X connect 99 0 134 0;
#X connect 100 0 95 0;
#X connect 100 0 135 0;
#X connect 101 0 96 0;
#X connect 101 0 136 0;
#X connect 102 0 97 0;
#X connect 102 0 138 0;
#X connect 103 0 98 0;
#X connect 104 0 99 0;
#X connect 105 0 100 0;
#X connect 106 0 101 0;
#X connect 107 0 102 0;
#X connect 108 0 103 0;
#X connect 110 0 117 0;
#X connect 110 1 118 0;
#X connect 110 2 112 0;
#X connect 111 0 117 0;
#X connect 111 1 118 0;
#X connect 111 1 121 0;
#X connect 112 0 113 0;
#X connect 113 0 111 0;
#X connect 117 0 116 0;
#X connect 118 0 68 0;
#X connect 118 0 61 0;
#X connect 118 0 124 0;
#X connect 121 0 122 0;
#X connect 121 0 123 0;
#X connect 124 0 120 0;
#X connect 125 0 127 0;
#X connect 125 1 126 0;
#X connect 128 0 137 0;
#X connect 129 0 137 1;
#X connect 130 0 137 3;
#X connect 132 0 137 5;
#X connect 133 0 137 6;
#X connect 134 0 137 7;
#X connect 135 0 137 8;
#X connect 136 0 137 9;
#X connect 137 0 139 0;
#X connect 138 0 137 10;
#X connect 139 0 131 0;
#X connect 139 0 140 0;
#X restore 1342 864 pd section2;
#N canvas 0 22 450 278 (subpatch) 0;
#X array sectionthree 12 float 4;
#X coords 0 -40 11 140 200 40 1 0 0;
#X restore 2062 416 graph;
#N canvas 497 23 1272 1104 section3 0;
#X obj 71 60 list;
#X text 182 24 58;
#X obj 192 -87 route;
#X obj 71 98 list trim;
#X obj 379 276 route /'duration': /'confidence':;
#X obj 398 371 symbol tofloat;
#X obj 418 411 list;
#X obj 93 203 print c;
#X obj 325 92 unpack float;
#X obj 309 255 print e;
#X floatatom 219 139 5 0 0 0 - - -;
#X msg -186 666 1;
#X obj 490 105 pack;
#X obj -109 -5 unpack \$1;
#X floatatom 574 120 5 0 0 0 - - -;
#X floatatom 617 123 5 0 0 0 - - -;
#X floatatom 672 117 5 0 0 0 - - -;
#X obj 561 53 route f f f f f f f f f;
#X obj 69 18 bytes2any 128 58;
#X obj 352 154 symbol tofloat;
#X obj 139 314 route;
#X obj -131 211 any2bytes 128 -1;
#X obj -128 259 list trim;
#X obj 87 141 bng 15 250 50 0 empty empty empty 17 7 0 10 -262144 -1
-1;
#X obj 88 164 list;
#X obj -128 236 bytes2any 128 39;
#X obj -127 280 any2bytes 128 -1;
#X obj -126 305 bytes2any 128 44;
#X obj -128 335 route confidence start loudness tempo_confidence key
key_confidence mode mode_confidence time_signature time_signature_confidence
duration tempo;
#X obj -134 394 any2bytes 128 -1;
#X obj -52 417 bytes2any 128 123;
#X obj -133 510 route bang;
#X obj -50 438 any2bytes 128 -1;
#X obj -48 466 bytes2any 128 125;
#X obj 145 481 print;
#X obj -317 306 print;
#X obj 134 654 print b;
#X obj 69 643 print c;
#X obj 359 486 qlist;
#X obj 427 528 unpack f f f f;
#X floatatom 437 565 5 0 0 0 - - -;
#X floatatom 473 569 5 0 0 0 - - -;
#X floatatom 508 570 5 0 0 0 - - -;
#X obj -129 549 route f f f f f f f;
#X obj 144 462 pack;
#X obj -111 110 list trim;
#X msg 292 -13 1;
#X floatatom 254 630 5 0 0 0 - - -;
#X floatatom 302 630 5 0 0 0 - - -;
#X floatatom 343 634 5 0 0 0 - - -;
#X obj 255 600 unpack f f f f;
#X obj -229 556 list;
#X obj 73 497 list length;
#X floatatom 91 527 5 0 0 0 - - -;
#X obj 344 514 print b;
#X obj -191 596 list append f f f f;
#X msg -163 741;
#X obj -68 727 outlet;
#X obj -235 371 print;
#X obj -97 632 list trim;
#X obj 37 37 scrollist;
#X floatatom -219 792 5 0 0 0 - - -;
#X obj -79 823 change;
#X obj -66 845 t b;
#X floatatom -26 868 5 0 0 0 - - -;
#X obj -23 845 int;
#X obj 16 850 + 1;
#X msg -23 817 0;
#X obj 53 -7 udpreceive 6259;
#X obj -160 884 tabwrite sectionthree;
#X floatatom -311 1005 5 0 0 0 - - -;
#X floatatom -182 1006 5 0 0 0 - - -;
#X floatatom -53 1006 5 0 0 0 - - -;
#X floatatom 76 1007 5 0 0 0 - - -;
#X msg -176 963 1;
#X msg -279 944 0;
#X msg -37 962 2;
#X msg 84 964 3;
#X obj 35 946 loadbang;
#X msg 46 923 bang;
#X msg 206 962 4;
#X msg 345 961 5;
#X msg 466 963 6;
#X floatatom 201 1003 5 0 0 0 - - -;
#X floatatom 331 1006 5 0 0 0 - - -;
#X floatatom 462 1005 5 0 0 0 - - -;
#X obj -311 984 tabread sectionthree;
#X obj -182 984 tabread sectionthree;
#X obj -52 983 tabread sectionthree;
#X obj 77 986 tabread sectionthree;
#X obj 200 983 tabread sectionthree;
#X obj 330 982 tabread sectionthree;
#X obj 459 984 tabread sectionthree;
#X obj 97 886 inlet;
#X obj 115 803 r sec;
#X obj 377 726 t l l b;
#X obj 523 777 t l l;
#X obj 523 736 del 250;
#X msg 523 756 list might get lost;
#X obj 377 849 print TIGHT;
#X obj 513 840 print LOOSE;
#X obj 377 830 pipe s 1500;
#X obj 377 802 drip 200 flush;
#X obj 513 811 drip 200;
#X floatatom 601 1000 5 0 0 0 - - -;
#X floatatom 726 996 5 0 0 0 - - -;
#X floatatom 856 999 5 0 0 0 - - -;
#X floatatom 987 998 5 0 0 0 - - -;
#X msg 609 957 7;
#X msg 731 955 8;
#X msg 870 954 9;
#X msg 991 956 10;
#X obj 601 978 tabread sectionthree;
#X obj 725 976 tabread sectionthree;
#X obj 855 975 tabread sectionthree;
#X obj 983 977 tabread sectionthree;
#X floatatom -308 1046 5 0 0 0 - - start2;
#X floatatom -179 1047 5 0 0 0 - - dur2;
#X floatatom -46 1042 5 0 0 0 - - loudness2;
#X floatatom 4 1018 0 0 0 0 - loudness2 -;
#X floatatom 217 1046 5 0 0 0 - - -;
#X floatatom 334 1047 5 0 0 0 - - mode2;
#X floatatom 465 1046 5 0 0 0 - - key2;
#X floatatom 580 1047 5 0 0 0 - - keyconf2;
#X floatatom 709 1048 5 0 0 0 - - modeconf2;
#X floatatom 834 1044 5 0 0 0 - - modeconf2;
#X floatatom 964 1047 5 0 0 0 - - timesigconf2;
#X floatatom 1095 1046 5 0 0 0 - - sigconf2;
#X floatatom 105 1060 5 0 0 0 - - tempo2;
#X floatatom -267 1049 5 0 0 0 - - -;
#X floatatom -139 1046 5 0 0 0 - - -;
#X floatatom 153 1050 5 0 0 0 - - -;
#X msg 583 1157 0 0 0 0 0 0 0 0 0 0 0;
#X floatatom 385 1045 5 0 0 0 - - -;
#X floatatom 502 1045 5 0 0 0 - - -;
#X floatatom 617 1044 5 0 0 0 - - -;
#X floatatom 746 1047 5 0 0 0 - - -;
#X floatatom 870 1046 5 0 0 0 - - -;
#X obj 585 1111 pack \$1 \$2 \$3 \$4 \$5 \$6 \$7 \$8 \$9 \$10 \$11
;
#X floatatom 1002 1047 5 0 0 0 - - -;
#X msg 585 1132 set \$1 \$2 \$3 \$4 \$5 \$6 \$7 \$8 \$9 \$10 \$11;
#X obj 186 878 del 100;
#X obj 487 1141 s s3;
#X connect 0 0 3 0;
#X connect 3 0 21 0;
#X connect 5 0 6 0;
#X connect 8 0 12 0;
#X connect 8 0 17 0;
#X connect 17 0 14 0;
#X connect 17 1 15 0;
#X connect 17 2 16 0;
#X connect 18 0 0 0;
#X connect 21 0 25 0;
#X connect 22 0 26 0;
#X connect 23 0 24 0;
#X connect 24 0 7 0;
#X connect 25 0 22 0;
#X connect 26 0 27 0;
#X connect 27 0 28 0;
#X connect 28 12 29 0;
#X connect 29 0 30 0;
#X connect 30 0 32 0;
#X connect 31 1 43 0;
#X connect 32 0 33 0;
#X connect 33 0 57 0;
#X connect 33 0 61 0;
#X connect 33 0 95 0;
#X connect 38 0 54 0;
#X connect 39 0 40 0;
#X connect 39 1 41 0;
#X connect 39 2 42 0;
#X connect 44 0 34 0;
#X connect 45 0 46 0;
#X connect 50 0 47 0;
#X connect 50 1 48 0;
#X connect 50 2 49 0;
#X connect 51 0 55 0;
#X connect 51 0 59 0;
#X connect 52 0 53 0;
#X connect 55 0 11 0;
#X connect 55 0 45 0;
#X connect 59 0 57 0;
#X connect 62 0 63 0;
#X connect 63 0 65 0;
#X connect 64 0 69 1;
#X connect 65 0 66 0;
#X connect 65 0 64 0;
#X connect 66 0 65 1;
#X connect 67 0 65 0;
#X connect 68 0 18 0;
#X connect 70 0 129 0;
#X connect 71 0 130 0;
#X connect 72 0 138 2;
#X connect 73 0 131 0;
#X connect 74 0 87 0;
#X connect 75 0 86 0;
#X connect 76 0 88 0;
#X connect 77 0 89 0;
#X connect 78 0 77 0;
#X connect 78 0 76 0;
#X connect 78 0 74 0;
#X connect 78 0 75 0;
#X connect 78 0 80 0;
#X connect 78 0 81 0;
#X connect 78 0 82 0;
#X connect 78 0 108 0;
#X connect 78 0 109 0;
#X connect 78 0 110 0;
#X connect 78 0 111 0;
#X connect 79 0 78 0;
#X connect 80 0 90 0;
#X connect 81 0 91 0;
#X connect 82 0 92 0;
#X connect 83 0 120 0;
#X connect 84 0 133 0;
#X connect 85 0 134 0;
#X connect 86 0 70 0;
#X connect 87 0 71 0;
#X connect 88 0 72 0;
#X connect 89 0 73 0;
#X connect 91 0 84 0;
#X connect 92 0 85 0;
#X connect 93 0 79 0;
#X connect 94 0 79 0;
#X connect 94 0 141 0;
#X connect 95 0 102 0;
#X connect 95 1 103 0;
#X connect 95 2 97 0;
#X connect 96 0 102 0;
#X connect 96 1 103 0;
#X connect 97 0 98 0;
#X connect 98 0 96 0;
#X connect 101 0 99 0;
#X connect 102 0 101 0;
#X connect 103 0 69 0;
#X connect 103 0 62 0;
#X connect 104 0 135 0;
#X connect 105 0 136 0;
#X connect 106 0 137 0;
#X connect 107 0 139 0;
#X connect 108 0 112 0;
#X connect 109 0 113 0;
#X connect 110 0 114 0;
#X connect 111 0 115 0;
#X connect 112 0 104 0;
#X connect 114 0 106 0;
#X connect 115 0 107 0;
#X connect 119 0 138 2;
#X connect 120 0 138 4;
#X connect 129 0 138 0;
#X connect 130 0 138 1;
#X connect 131 0 138 3;
#X connect 133 0 138 5;
#X connect 134 0 138 6;
#X connect 135 0 138 7;
#X connect 136 0 138 8;
#X connect 137 0 138 9;
#X connect 138 0 140 0;
#X connect 139 0 138 10;
#X connect 140 0 132 0;
#X connect 140 0 142 0;
#X connect 141 0 79 0;
#X restore 1342 843 pd section3;
#N canvas 0 22 450 278 (subpatch) 0;
#X array sectionfour 12 float 4;
#X coords 0 -40 12 140 200 40 1 0 0;
#X restore 2062 471 graph;
#N canvas 0 22 450 278 (subpatch) 0;
#X array sectionfive 12 float 4;
#X coords 0 -40 11 140 200 40 1 0 0;
#X restore 2063 529 graph;
#N canvas 0 22 450 278 (subpatch) 0;
#X array sectionsix 12 float 4;
#X coords 0 -40 11 140 200 40 1 0 0;
#X restore 2063 586 graph;
#N canvas 488 23 1206 1085 section4 0;
#X obj 71 60 list;
#X text 182 24 58;
#X obj 192 -87 route;
#X obj 71 98 list trim;
#X obj 379 276 route /'duration': /'confidence':;
#X obj 398 371 symbol tofloat;
#X obj 418 411 list;
#X obj 93 203 print c;
#X obj 325 92 unpack float;
#X obj 309 255 print e;
#X floatatom 219 139 5 0 0 0 - - -;
#X msg -186 666 1;
#X obj 490 105 pack;
#X obj -109 -5 unpack \$1;
#X floatatom 574 120 5 0 0 0 - - -;
#X floatatom 617 123 5 0 0 0 - - -;
#X floatatom 672 117 5 0 0 0 - - -;
#X obj 561 53 route f f f f f f f f f;
#X obj 69 18 bytes2any 128 58;
#X obj 352 154 symbol tofloat;
#X obj 139 314 route;
#X obj -131 211 any2bytes 128 -1;
#X obj -128 259 list trim;
#X obj 87 141 bng 15 250 50 0 empty empty empty 17 7 0 10 -262144 -1
-1;
#X obj 88 164 list;
#X obj -128 236 bytes2any 128 39;
#X obj -127 280 any2bytes 128 -1;
#X obj -126 305 bytes2any 128 44;
#X obj -128 335 route confidence start loudness tempo_confidence key
key_confidence mode mode_confidence time_signature time_signature_confidence
duration tempo;
#X obj -134 394 any2bytes 128 -1;
#X obj -52 417 bytes2any 128 123;
#X obj -133 510 route bang;
#X obj -50 438 any2bytes 128 -1;
#X obj -48 466 bytes2any 128 125;
#X obj 145 481 print;
#X obj -317 306 print;
#X obj 134 654 print b;
#X obj 69 643 print c;
#X obj 359 486 qlist;
#X obj 427 528 unpack f f f f;
#X floatatom 437 565 5 0 0 0 - - -;
#X floatatom 473 569 5 0 0 0 - - -;
#X floatatom 508 570 5 0 0 0 - - -;
#X obj -129 549 route f f f f f f f;
#X obj 144 462 pack;
#X obj -111 110 list trim;
#X msg 292 -13 1;
#X floatatom 254 630 5 0 0 0 - - -;
#X floatatom 302 630 5 0 0 0 - - -;
#X floatatom 343 634 5 0 0 0 - - -;
#X obj 255 600 unpack f f f f;
#X obj -229 556 list;
#X obj 73 497 list length;
#X floatatom 91 527 5 0 0 0 - - -;
#X obj 344 514 print b;
#X obj -191 596 list append f f f f;
#X msg -163 741;
#X obj -68 727 outlet;
#X obj -235 371 print;
#X obj -97 632 list trim;
#X floatatom -219 792 5 0 0 0 - - -;
#X obj -79 823 change;
#X obj -66 845 t b;
#X floatatom -26 868 5 0 0 0 - - -;
#X obj -23 845 int;
#X obj 16 850 + 1;
#X msg -23 817 0;
#X obj -160 884 tabwrite sectionfour;
#X obj 53 -7 udpreceive 6260;
#X floatatom -39 974 5 0 0 0 - - -;
#X floatatom 90 975 5 0 0 0 - - -;
#X floatatom 219 975 5 0 0 0 - - -;
#X floatatom 348 976 5 0 0 0 - - -;
#X msg 96 932 1;
#X msg -7 913 0;
#X msg 235 931 2;
#X msg 356 933 3;
#X obj 307 915 loadbang;
#X msg 318 892 bang;
#X msg 478 931 4;
#X msg 617 930 5;
#X msg 738 932 6;
#X floatatom 473 972 5 0 0 0 - - -;
#X floatatom 603 975 5 0 0 0 - - -;
#X floatatom 734 974 5 0 0 0 - - -;
#X obj -39 953 tabread sectionfour;
#X obj 91 953 tabread sectionfour;
#X obj 220 952 tabread sectionfour;
#X obj 349 955 tabread sectionfour;
#X obj 472 952 tabread sectionfour;
#X obj 602 951 tabread sectionfour;
#X obj 731 953 tabread sectionfour;
#X obj 324 809 inlet;
#X obj 148 813 r sec;
#X obj 536 694 t l l b;
#X obj 682 745 t l l;
#X obj 682 704 del 250;
#X msg 682 724 list might get lost;
#X obj 536 817 print TIGHT;
#X obj 672 808 print LOOSE;
#X obj 536 798 pipe s 1500;
#X obj 536 770 drip 200 flush;
#X obj 672 779 drip 200;
#X floatatom 851 970 5 0 0 0 - - -;
#X floatatom 976 966 5 0 0 0 - - -;
#X floatatom 1106 969 5 0 0 0 - - -;
#X floatatom 1237 968 5 0 0 0 - - -;
#X msg 859 927 7;
#X msg 981 925 8;
#X msg 1120 924 9;
#X msg 1241 926 10;
#X obj 851 948 tabread sectionfour;
#X obj 975 947 tabread sectionfour;
#X obj 1106 945 tabread sectionfour;
#X obj 1233 947 tabread sectionfour;
#X floatatom -41 1012 5 0 0 0 - - start2;
#X floatatom 88 1013 5 0 0 0 - - dur2;
#X floatatom 221 1008 5 0 0 0 - - loudness2;
#X floatatom 258 1008 0 0 0 0 - loudness2 -;
#X floatatom 484 1012 5 0 0 0 - - -;
#X floatatom 601 1013 5 0 0 0 - - mode2;
#X floatatom 732 1012 5 0 0 0 - - key2;
#X floatatom 847 1013 5 0 0 0 - - keyconf2;
#X floatatom 976 1014 5 0 0 0 - - modeconf2;
#X floatatom 1101 1010 5 0 0 0 - - modeconf2;
#X floatatom 1231 1013 5 0 0 0 - - timesigconf2;
#X floatatom 372 1026 5 0 0 0 - - tempo2;
#X floatatom 0 1015 5 0 0 0 - - -;
#X floatatom 128 1012 5 0 0 0 - - -;
#X floatatom 420 1016 5 0 0 0 - - -;
#X msg 850 1123 0 0 0 0 0 0 0 0 0 0 0;
#X floatatom 652 1011 5 0 0 0 - - -;
#X floatatom 769 1011 5 0 0 0 - - -;
#X floatatom 884 1010 5 0 0 0 - - -;
#X floatatom 1013 1013 5 0 0 0 - - -;
#X floatatom 1137 1012 5 0 0 0 - - -;
#X obj 852 1077 pack \$1 \$2 \$3 \$4 \$5 \$6 \$7 \$8 \$9 \$10 \$11
;
#X floatatom 1269 1013 5 0 0 0 - - -;
#X msg 852 1098 set \$1 \$2 \$3 \$4 \$5 \$6 \$7 \$8 \$9 \$10 \$11;
#X obj 791 1112 s s4;
#X connect 0 0 3 0;
#X connect 3 0 21 0;
#X connect 5 0 6 0;
#X connect 8 0 12 0;
#X connect 8 0 17 0;
#X connect 17 0 14 0;
#X connect 17 1 15 0;
#X connect 17 2 16 0;
#X connect 18 0 0 0;
#X connect 21 0 25 0;
#X connect 22 0 26 0;
#X connect 23 0 24 0;
#X connect 24 0 7 0;
#X connect 25 0 22 0;
#X connect 26 0 27 0;
#X connect 27 0 28 0;
#X connect 28 12 29 0;
#X connect 29 0 30 0;
#X connect 30 0 32 0;
#X connect 31 1 43 0;
#X connect 32 0 33 0;
#X connect 33 0 57 0;
#X connect 33 0 60 0;
#X connect 33 0 94 0;
#X connect 38 0 54 0;
#X connect 39 0 40 0;
#X connect 39 1 41 0;
#X connect 39 2 42 0;
#X connect 44 0 34 0;
#X connect 45 0 46 0;
#X connect 50 0 47 0;
#X connect 50 1 48 0;
#X connect 50 2 49 0;
#X connect 51 0 55 0;
#X connect 51 0 59 0;
#X connect 52 0 53 0;
#X connect 55 0 11 0;
#X connect 55 0 45 0;
#X connect 59 0 57 0;
#X connect 61 0 62 0;
#X connect 62 0 64 0;
#X connect 63 0 67 1;
#X connect 64 0 65 0;
#X connect 64 0 63 0;
#X connect 65 0 64 1;
#X connect 66 0 64 0;
#X connect 68 0 18 0;
#X connect 69 0 127 0;
#X connect 70 0 128 0;
#X connect 71 0 136 2;
#X connect 72 0 129 0;
#X connect 73 0 86 0;
#X connect 74 0 85 0;
#X connect 75 0 87 0;
#X connect 76 0 88 0;
#X connect 77 0 76 0;
#X connect 77 0 75 0;
#X connect 77 0 73 0;
#X connect 77 0 74 0;
#X connect 77 0 79 0;
#X connect 77 0 80 0;
#X connect 77 0 81 0;
#X connect 77 0 107 0;
#X connect 77 0 108 0;
#X connect 77 0 109 0;
#X connect 77 0 110 0;
#X connect 78 0 77 0;
#X connect 79 0 89 0;
#X connect 80 0 90 0;
#X connect 81 0 91 0;
#X connect 82 0 119 0;
#X connect 83 0 131 0;
#X connect 84 0 132 0;
#X connect 85 0 69 0;
#X connect 86 0 70 0;
#X connect 87 0 71 0;
#X connect 88 0 72 0;
#X connect 90 0 83 0;
#X connect 91 0 84 0;
#X connect 92 0 78 0;
#X connect 93 0 78 0;
#X connect 94 0 101 0;
#X connect 94 1 102 0;
#X connect 94 2 96 0;
#X connect 95 0 101 0;
#X connect 95 1 102 0;
#X connect 96 0 97 0;
#X connect 97 0 95 0;
#X connect 100 0 98 0;
#X connect 101 0 100 0;
#X connect 102 0 61 0;
#X connect 102 0 67 0;
#X connect 103 0 133 0;
#X connect 104 0 134 0;
#X connect 105 0 135 0;
#X connect 106 0 137 0;
#X connect 107 0 111 0;
#X connect 108 0 112 0;
#X connect 109 0 113 0;
#X connect 110 0 114 0;
#X connect 111 0 103 0;
#X connect 113 0 105 0;
#X connect 114 0 106 0;
#X connect 118 0 136 2;
#X connect 119 0 136 4;
#X connect 127 0 136 0;
#X connect 128 0 136 1;
#X connect 129 0 136 3;
#X connect 131 0 136 5;
#X connect 132 0 136 6;
#X connect 133 0 136 7;
#X connect 134 0 136 8;
#X connect 135 0 136 9;
#X connect 136 0 138 0;
#X connect 137 0 136 10;
#X connect 138 0 130 0;
#X connect 138 0 139 0;
#X restore 1342 821 pd section4;
#N canvas 764 44 1040 1065 section5 0;
#X obj 71 60 list;
#X text 182 24 58;
#X obj 192 -87 route;
#X obj 71 98 list trim;
#X obj 379 276 route /'duration': /'confidence':;
#X obj 398 371 symbol tofloat;
#X obj 418 411 list;
#X obj 93 203 print c;
#X obj 325 92 unpack float;
#X obj 309 255 print e;
#X floatatom 219 139 5 0 0 0 - - -;
#X msg -186 666 1;
#X obj 490 105 pack;
#X obj -109 -5 unpack \$1;
#X floatatom 574 120 5 0 0 0 - - -;
#X floatatom 617 123 5 0 0 0 - - -;
#X floatatom 672 117 5 0 0 0 - - -;
#X obj 561 53 route f f f f f f f f f;
#X obj 69 18 bytes2any 128 58;
#X obj 352 154 symbol tofloat;
#X obj 139 314 route;
#X obj -131 211 any2bytes 128 -1;
#X obj -128 259 list trim;
#X obj 87 141 bng 15 250 50 0 empty empty empty 17 7 0 10 -262144 -1
-1;
#X obj 88 164 list;
#X obj -128 236 bytes2any 128 39;
#X obj -127 280 any2bytes 128 -1;
#X obj -126 305 bytes2any 128 44;
#X obj -128 335 route confidence start loudness tempo_confidence key
key_confidence mode mode_confidence time_signature time_signature_confidence
duration tempo;
#X obj -134 394 any2bytes 128 -1;
#X obj -52 417 bytes2any 128 123;
#X obj -133 510 route bang;
#X obj -50 438 any2bytes 128 -1;
#X obj -48 466 bytes2any 128 125;
#X obj 145 481 print;
#X obj -317 306 print;
#X obj 134 654 print b;
#X obj 69 643 print c;
#X obj 359 486 qlist;
#X obj 427 528 unpack f f f f;
#X floatatom 437 565 5 0 0 0 - - -;
#X floatatom 473 569 5 0 0 0 - - -;
#X floatatom 508 570 5 0 0 0 - - -;
#X obj -129 549 route f f f f f f f;
#X obj 144 462 pack;
#X obj -111 110 list trim;
#X msg 292 -13 1;
#X floatatom 254 630 5 0 0 0 - - -;
#X floatatom 302 630 5 0 0 0 - - -;
#X floatatom 343 634 5 0 0 0 - - -;
#X obj 255 600 unpack f f f f;
#X obj -229 556 list;
#X obj 73 497 list length;
#X floatatom 91 527 5 0 0 0 - - -;
#X obj 344 514 print b;
#X obj -191 596 list append f f f f;
#X msg -163 741;
#X obj -68 727 outlet;
#X obj -235 371 print;
#X obj -97 632 list trim;
#X obj 37 37 scrollist;
#X floatatom -219 792 5 0 0 0 - - -;
#X obj -79 823 change;
#X obj -66 845 t b;
#X floatatom -26 868 5 0 0 0 - - -;
#X obj -23 845 int;
#X obj 16 850 + 1;
#X msg -23 817 0;
#X obj -160 884 tabwrite sectionfive;
#X obj 53 -7 udpreceive 6261;
#X floatatom -229 974 5 0 0 0 - - -;
#X floatatom -100 975 5 0 0 0 - - -;
#X floatatom 29 975 5 0 0 0 - - -;
#X floatatom 158 976 5 0 0 0 - - -;
#X msg -94 932 1;
#X msg -197 913 0;
#X msg 45 931 2;
#X msg 166 933 3;
#X obj 608 871 loadbang;
#X msg 128 892 bang;
#X msg 288 931 4;
#X msg 427 930 5;
#X msg 548 932 6;
#X floatatom 283 972 5 0 0 0 - - -;
#X floatatom 413 975 5 0 0 0 - - -;
#X floatatom 544 974 5 0 0 0 - - -;
#X obj -229 953 tabread sectionfive;
#X obj -100 953 tabread sectionfive;
#X obj 31 952 tabread sectionfive;
#X obj 159 955 tabread sectionfive;
#X obj 282 952 tabread sectionfive;
#X obj 412 951 tabread sectionfive;
#X obj 541 953 tabread sectionfive;
#X obj 148 816 inlet;
#X obj 138 803 r sec;
#X obj 304 704 t l l b;
#X obj 450 755 t l l;
#X obj 450 714 del 250;
#X msg 450 734 list might get lost;
#X obj 304 827 print TIGHT;
#X obj 440 818 print LOOSE;
#X obj 304 808 pipe s 1500;
#X obj 304 780 drip 200 flush;
#X obj 440 789 drip 200;
#X floatatom 632 966 5 0 0 0 - - -;
#X floatatom 757 962 5 0 0 0 - - -;
#X floatatom 887 965 5 0 0 0 - - -;
#X floatatom 1018 964 5 0 0 0 - - -;
#X msg 640 923 7;
#X msg 762 921 8;
#X msg 901 920 9;
#X msg 1022 922 10;
#X obj 632 944 tabread sectionfive;
#X obj 756 942 tabread sectionfive;
#X obj 886 941 tabread sectionfive;
#X obj 1014 943 tabread sectionfive;
#X floatatom -143 1026 5 0 0 0 - - dur2;
#X floatatom -10 1021 5 0 0 0 - - loudness2;
#X floatatom 27 1021 0 0 0 0 - loudness2 -;
#X floatatom 286 1007 5 0 0 0 - - -;
#X floatatom 370 1026 5 0 0 0 - - mode2;
#X floatatom 501 1025 5 0 0 0 - - key2;
#X floatatom 616 1026 5 0 0 0 - - keyconf2;
#X floatatom 745 1027 5 0 0 0 - - modeconf2;
#X floatatom 870 1023 5 0 0 0 - - modeconf2;
#X floatatom 1000 1026 5 0 0 0 - - timesigconf2;
#X floatatom 141 1039 5 0 0 0 - - tempo2;
#X floatatom -231 1028 5 0 0 0 - - -;
#X floatatom -103 1025 5 0 0 0 - - -;
#X floatatom 174 1012 5 0 0 0 - - -;
#X msg 619 1136 0 0 0 0 0 0 0 0 0 0 0;
#X floatatom 421 1024 5 0 0 0 - - -;
#X floatatom 538 1024 5 0 0 0 - - -;
#X floatatom 653 1023 5 0 0 0 - - -;
#X floatatom 782 1026 5 0 0 0 - - -;
#X floatatom 906 1025 5 0 0 0 - - -;
#X obj 621 1090 pack \$1 \$2 \$3 \$4 \$5 \$6 \$7 \$8 \$9 \$10 \$11
;
#X floatatom 1038 1026 5 0 0 0 - - -;
#X msg 621 1111 set \$1 \$2 \$3 \$4 \$5 \$6 \$7 \$8 \$9 \$10 \$11;
#X obj 560 1125 s s5;
#X connect 0 0 3 0;
#X connect 3 0 21 0;
#X connect 5 0 6 0;
#X connect 8 0 12 0;
#X connect 8 0 17 0;
#X connect 17 0 14 0;
#X connect 17 1 15 0;
#X connect 17 2 16 0;
#X connect 18 0 0 0;
#X connect 21 0 25 0;
#X connect 22 0 26 0;
#X connect 23 0 24 0;
#X connect 24 0 7 0;
#X connect 25 0 22 0;
#X connect 26 0 27 0;
#X connect 27 0 28 0;
#X connect 28 12 29 0;
#X connect 29 0 30 0;
#X connect 30 0 32 0;
#X connect 31 1 43 0;
#X connect 32 0 33 0;
#X connect 33 0 57 0;
#X connect 33 0 61 0;
#X connect 33 0 95 0;
#X connect 38 0 54 0;
#X connect 39 0 40 0;
#X connect 39 1 41 0;
#X connect 39 2 42 0;
#X connect 44 0 34 0;
#X connect 45 0 46 0;
#X connect 50 0 47 0;
#X connect 50 1 48 0;
#X connect 50 2 49 0;
#X connect 51 0 55 0;
#X connect 51 0 59 0;
#X connect 52 0 53 0;
#X connect 55 0 11 0;
#X connect 55 0 45 0;
#X connect 59 0 57 0;
#X connect 62 0 63 0;
#X connect 63 0 65 0;
#X connect 64 0 68 1;
#X connect 65 0 66 0;
#X connect 65 0 64 0;
#X connect 66 0 65 1;
#X connect 67 0 65 0;
#X connect 69 0 18 0;
#X connect 70 0 127 0;
#X connect 71 0 128 0;
#X connect 72 0 136 2;
#X connect 73 0 129 0;
#X connect 74 0 87 0;
#X connect 75 0 86 0;
#X connect 76 0 88 0;
#X connect 77 0 89 0;
#X connect 78 0 77 0;
#X connect 78 0 76 0;
#X connect 78 0 74 0;
#X connect 78 0 75 0;
#X connect 78 0 80 0;
#X connect 78 0 81 0;
#X connect 78 0 82 0;
#X connect 78 0 108 0;
#X connect 78 0 109 0;
#X connect 78 0 110 0;
#X connect 78 0 111 0;
#X connect 79 0 78 0;
#X connect 80 0 90 0;
#X connect 81 0 91 0;
#X connect 82 0 92 0;
#X connect 83 0 119 0;
#X connect 84 0 131 0;
#X connect 85 0 132 0;
#X connect 86 0 70 0;
#X connect 87 0 71 0;
#X connect 88 0 72 0;
#X connect 89 0 73 0;
#X connect 91 0 84 0;
#X connect 92 0 85 0;
#X connect 93 0 79 0;
#X connect 94 0 79 0;
#X connect 95 0 102 0;
#X connect 95 1 103 0;
#X connect 95 2 97 0;
#X connect 96 0 102 0;
#X connect 96 1 103 0;
#X connect 97 0 98 0;
#X connect 98 0 96 0;
#X connect 101 0 99 0;
#X connect 102 0 101 0;
#X connect 103 0 62 0;
#X connect 103 0 68 0;
#X connect 104 0 133 0;
#X connect 105 0 134 0;
#X connect 106 0 135 0;
#X connect 107 0 137 0;
#X connect 108 0 112 0;
#X connect 109 0 113 0;
#X connect 110 0 114 0;
#X connect 111 0 115 0;
#X connect 112 0 104 0;
#X connect 114 0 106 0;
#X connect 115 0 107 0;
#X connect 118 0 136 2;
#X connect 119 0 136 4;
#X connect 127 0 136 0;
#X connect 128 0 136 1;
#X connect 129 0 136 3;
#X connect 131 0 136 5;
#X connect 132 0 136 6;
#X connect 133 0 136 7;
#X connect 134 0 136 8;
#X connect 135 0 136 9;
#X connect 136 0 138 0;
#X connect 137 0 136 10;
#X connect 138 0 130 0;
#X connect 138 0 139 0;
#X restore 1342 799 pd section5;
#N canvas 517 35 1040 1065 section6 0;
#X obj 71 60 list;
#X text 182 24 58;
#X obj 192 -87 route;
#X obj 71 98 list trim;
#X obj 379 276 route /'duration': /'confidence':;
#X obj 398 371 symbol tofloat;
#X obj 418 411 list;
#X obj 93 203 print c;
#X obj 325 92 unpack float;
#X obj 309 255 print e;
#X floatatom 219 139 5 0 0 0 - - -;
#X msg -186 666 1;
#X obj 490 105 pack;
#X obj -109 -5 unpack \$1;
#X floatatom 574 120 5 0 0 0 - - -;
#X floatatom 617 123 5 0 0 0 - - -;
#X floatatom 672 117 5 0 0 0 - - -;
#X obj 561 53 route f f f f f f f f f;
#X obj 69 18 bytes2any 128 58;
#X obj 352 154 symbol tofloat;
#X obj 139 314 route;
#X obj -131 211 any2bytes 128 -1;
#X obj -128 259 list trim;
#X obj 87 141 bng 15 250 50 0 empty empty empty 17 7 0 10 -262144 -1
-1;
#X obj 88 164 list;
#X obj -128 236 bytes2any 128 39;
#X obj -127 280 any2bytes 128 -1;
#X obj -126 305 bytes2any 128 44;
#X obj -128 335 route confidence start loudness tempo_confidence key
key_confidence mode mode_confidence time_signature time_signature_confidence
duration tempo;
#X obj -134 394 any2bytes 128 -1;
#X obj -52 417 bytes2any 128 123;
#X obj -133 510 route bang;
#X obj -50 438 any2bytes 128 -1;
#X obj -48 466 bytes2any 128 125;
#X obj 145 481 print;
#X obj -317 306 print;
#X obj 134 654 print b;
#X obj 69 643 print c;
#X obj 359 486 qlist;
#X obj 427 528 unpack f f f f;
#X floatatom 437 565 5 0 0 0 - - -;
#X floatatom 473 569 5 0 0 0 - - -;
#X floatatom 508 570 5 0 0 0 - - -;
#X obj -129 549 route f f f f f f f;
#X obj 144 462 pack;
#X obj -111 110 list trim;
#X msg 292 -13 1;
#X floatatom 254 630 5 0 0 0 - - -;
#X floatatom 302 630 5 0 0 0 - - -;
#X floatatom 343 634 5 0 0 0 - - -;
#X obj 255 600 unpack f f f f;
#X obj -229 556 list;
#X obj 73 497 list length;
#X floatatom 91 527 5 0 0 0 - - -;
#X obj 344 514 print b;
#X obj -191 596 list append f f f f;
#X msg -163 741;
#X obj -68 727 outlet;
#X obj -235 371 print;
#X obj -97 632 list trim;
#X obj 37 37 scrollist;
#X floatatom -219 792 5 0 0 0 - - -;
#X obj -79 823 change;
#X obj -66 845 t b;
#X floatatom -26 868 5 0 0 0 - - -;
#X obj -23 845 int;
#X obj 16 850 + 1;
#X msg -23 817 0;
#X obj -160 884 tabwrite sectionsix;
#X obj 53 -7 udpreceive 6262;
#X floatatom -298 993 5 0 0 0 - - -;
#X floatatom -169 994 5 0 0 0 - - -;
#X floatatom -40 994 5 0 0 0 - - -;
#X floatatom 89 995 5 0 0 0 - - -;
#X msg -163 951 1;
#X msg -266 932 0;
#X msg -24 950 2;
#X msg 97 952 3;
#X obj 546 871 loadbang;
#X msg 59 911 bang;
#X msg 219 950 4;
#X msg 358 949 5;
#X msg 479 951 6;
#X floatatom 214 991 5 0 0 0 - - -;
#X floatatom 344 994 5 0 0 0 - - -;
#X floatatom 475 993 5 0 0 0 - - -;
#X obj 213 971 tabread sectiontwo;
#X obj -298 972 tabread sectionsix;
#X obj -169 972 tabread sectionsix;
#X obj -40 971 tabread sectionsix;
#X obj 90 974 tabread sectionsix;
#X obj 343 969 tabread sectionsix;
#X obj 472 972 tabread sectionsix;
#X obj -268 22 inlet;
#X obj 128 793 r sec;
#X obj 209 770 t l l b;
#X obj 355 821 t l l;
#X obj 355 780 del 250;
#X msg 355 800 list might get lost;
#X obj 209 893 print TIGHT;
#X obj 345 884 print LOOSE;
#X obj 209 874 pipe s 1500;
#X obj 209 846 drip 200 flush;
#X obj 345 855 drip 200;
#X floatatom 642 976 5 0 0 0 - - -;
#X floatatom 767 972 5 0 0 0 - - -;
#X floatatom 897 975 5 0 0 0 - - -;
#X floatatom 1028 974 5 0 0 0 - - -;
#X msg 650 933 7;
#X msg 772 931 8;
#X msg 911 930 9;
#X msg 1032 932 10;
#X obj 642 954 tabread sectionsix;
#X obj 768 953 tabread sectionsix;
#X obj 896 951 tabread sectionsix;
#X obj 1024 953 tabread sectionsix;
#X floatatom -205 1051 5 0 0 0 - - dur2;
#X floatatom -72 1046 5 0 0 0 - - loudness2;
#X floatatom -35 1046 0 0 0 0 - loudness2 -;
#X floatatom 191 1050 5 0 0 0 - - -;
#X floatatom 308 1051 5 0 0 0 - - mode2;
#X floatatom 439 1050 5 0 0 0 - - key2;
#X floatatom 554 1051 5 0 0 0 - - keyconf2;
#X floatatom 683 1052 5 0 0 0 - - modeconf2;
#X floatatom 808 1048 5 0 0 0 - - modeconf2;
#X floatatom 938 1051 5 0 0 0 - - timesigconf2;
#X floatatom 79 1064 5 0 0 0 - - tempo2;
#X floatatom -293 1053 5 0 0 0 - - -;
#X floatatom -165 1050 5 0 0 0 - - -;
#X floatatom 127 1054 5 0 0 0 - - -;
#X msg 557 1161 0 0 0 0 0 0 0 0 0 0 0;
#X floatatom 359 1049 5 0 0 0 - - -;
#X floatatom 476 1049 5 0 0 0 - - -;
#X floatatom 591 1048 5 0 0 0 - - -;
#X floatatom 720 1051 5 0 0 0 - - -;
#X floatatom 844 1050 5 0 0 0 - - -;
#X obj 559 1115 pack \$1 \$2 \$3 \$4 \$5 \$6 \$7 \$8 \$9 \$10 \$11
;
#X floatatom 976 1051 5 0 0 0 - - -;
#X msg 559 1136 set \$1 \$2 \$3 \$4 \$5 \$6 \$7 \$8 \$9 \$10 \$11;
#X obj 498 1150 s s6;
#X connect 0 0 3 0;
#X connect 3 0 21 0;
#X connect 5 0 6 0;
#X connect 8 0 12 0;
#X connect 8 0 17 0;
#X connect 17 0 14 0;
#X connect 17 1 15 0;
#X connect 17 2 16 0;
#X connect 18 0 0 0;
#X connect 21 0 25 0;
#X connect 22 0 26 0;
#X connect 23 0 24 0;
#X connect 24 0 7 0;
#X connect 25 0 22 0;
#X connect 26 0 27 0;
#X connect 27 0 28 0;
#X connect 28 12 29 0;
#X connect 29 0 30 0;
#X connect 30 0 32 0;
#X connect 31 1 43 0;
#X connect 32 0 33 0;
#X connect 33 0 57 0;
#X connect 33 0 61 0;
#X connect 33 0 95 0;
#X connect 38 0 54 0;
#X connect 39 0 40 0;
#X connect 39 1 41 0;
#X connect 39 2 42 0;
#X connect 44 0 34 0;
#X connect 45 0 46 0;
#X connect 50 0 47 0;
#X connect 50 1 48 0;
#X connect 50 2 49 0;
#X connect 51 0 55 0;
#X connect 51 0 59 0;
#X connect 52 0 53 0;
#X connect 55 0 11 0;
#X connect 55 0 45 0;
#X connect 59 0 57 0;
#X connect 62 0 63 0;
#X connect 63 0 65 0;
#X connect 64 0 68 1;
#X connect 65 0 66 0;
#X connect 65 0 64 0;
#X connect 66 0 65 1;
#X connect 67 0 65 0;
#X connect 69 0 18 0;
#X connect 70 0 127 0;
#X connect 71 0 128 0;
#X connect 72 0 136 2;
#X connect 73 0 129 0;
#X connect 74 0 88 0;
#X connect 75 0 87 0;
#X connect 76 0 89 0;
#X connect 77 0 90 0;
#X connect 78 0 77 0;
#X connect 78 0 76 0;
#X connect 78 0 74 0;
#X connect 78 0 75 0;
#X connect 78 0 80 0;
#X connect 78 0 81 0;
#X connect 78 0 82 0;
#X connect 78 0 108 0;
#X connect 78 0 109 0;
#X connect 78 0 110 0;
#X connect 78 0 111 0;
#X connect 79 0 78 0;
#X connect 80 0 86 0;
#X connect 81 0 91 0;
#X connect 82 0 92 0;
#X connect 83 0 119 0;
#X connect 84 0 131 0;
#X connect 85 0 132 0;
#X connect 87 0 70 0;
#X connect 88 0 71 0;
#X connect 89 0 72 0;
#X connect 90 0 73 0;
#X connect 91 0 84 0;
#X connect 92 0 85 0;
#X connect 93 0 79 0;
#X connect 94 0 79 0;
#X connect 95 0 102 0;
#X connect 95 1 103 0;
#X connect 95 2 97 0;
#X connect 96 0 102 0;
#X connect 96 1 103 0;
#X connect 97 0 98 0;
#X connect 98 0 96 0;
#X connect 101 0 99 0;
#X connect 102 0 101 0;
#X connect 103 0 68 0;
#X connect 103 0 62 0;
#X connect 104 0 133 0;
#X connect 105 0 134 0;
#X connect 106 0 135 0;
#X connect 107 0 137 0;
#X connect 108 0 112 0;
#X connect 109 0 113 0;
#X connect 110 0 114 0;
#X connect 111 0 115 0;
#X connect 112 0 104 0;
#X connect 114 0 106 0;
#X connect 115 0 107 0;
#X connect 118 0 136 2;
#X connect 119 0 136 4;
#X connect 127 0 136 0;
#X connect 128 0 136 1;
#X connect 129 0 136 3;
#X connect 131 0 136 5;
#X connect 132 0 136 6;
#X connect 133 0 136 7;
#X connect 134 0 136 8;
#X connect 135 0 136 9;
#X connect 136 0 138 0;
#X connect 137 0 136 10;
#X connect 138 0 130 0;
#X connect 138 0 139 0;
#X restore 1341 779 pd section6;
#N canvas 0 22 450 278 (subpatch) 0;
#X array sectionseven 12 float 4;
#X coords 0 -40 11 140 200 40 2 0 0;
#X restore 2064 643 graph;
#N canvas 711 552 1040 1065 section7 0;
#X obj 71 60 list;
#X text 182 24 58;
#X obj 192 -87 route;
#X obj 71 98 list trim;
#X obj 379 276 route /'duration': /'confidence':;
#X obj 398 371 symbol tofloat;
#X obj 418 411 list;
#X obj 93 203 print c;
#X obj 325 92 unpack float;
#X obj 309 255 print e;
#X floatatom 219 139 5 0 0 0 - - -;
#X msg -186 666 1;
#X obj 490 105 pack;
#X obj -109 -5 unpack \$1;
#X floatatom 574 120 5 0 0 0 - - -;
#X floatatom 617 123 5 0 0 0 - - -;
#X floatatom 672 117 5 0 0 0 - - -;
#X obj 561 53 route f f f f f f f f f;
#X obj 69 18 bytes2any 128 58;
#X obj 352 154 symbol tofloat;
#X obj 139 314 route;
#X obj -131 211 any2bytes 128 -1;
#X obj -128 259 list trim;
#X obj 87 141 bng 15 250 50 0 empty empty empty 17 7 0 10 -262144 -1
-1;
#X obj 88 164 list;
#X obj -128 236 bytes2any 128 39;
#X obj -127 280 any2bytes 128 -1;
#X obj -126 305 bytes2any 128 44;
#X obj -128 335 route confidence start loudness tempo_confidence key
key_confidence mode mode_confidence time_signature time_signature_confidence
duration tempo;
#X obj -134 394 any2bytes 128 -1;
#X obj -52 417 bytes2any 128 123;
#X obj -133 510 route bang;
#X obj -50 438 any2bytes 128 -1;
#X obj -48 466 bytes2any 128 125;
#X obj 145 481 print;
#X obj -317 306 print;
#X obj 134 654 print b;
#X obj 69 643 print c;
#X obj 359 486 qlist;
#X obj 427 528 unpack f f f f;
#X floatatom 437 565 5 0 0 0 - - -;
#X floatatom 473 569 5 0 0 0 - - -;
#X floatatom 508 570 5 0 0 0 - - -;
#X obj -129 549 route f f f f f f f;
#X obj 144 462 pack;
#X obj -111 110 list trim;
#X msg 292 -13 1;
#X floatatom 254 630 5 0 0 0 - - -;
#X floatatom 302 630 5 0 0 0 - - -;
#X floatatom 343 634 5 0 0 0 - - -;
#X obj 255 600 unpack f f f f;
#X obj -229 556 list;
#X obj 73 497 list length;
#X floatatom 91 527 5 0 0 0 - - -;
#X obj 344 514 print b;
#X obj -191 596 list append f f f f;
#X msg -163 741;
#X obj -68 727 outlet;
#X obj -235 371 print;
#X obj -97 632 list trim;
#X floatatom -219 792 5 0 0 0 - - -;
#X obj -79 823 change;
#X obj -66 845 t b;
#X floatatom -26 868 5 0 0 0 - - -;
#X obj -23 845 int;
#X obj 16 850 + 1;
#X msg -23 817 0;
#X obj -160 884 tabwrite sectionsix;
#X obj 53 -7 udpreceive 6262;
#X floatatom -298 993 5 0 0 0 - - -;
#X floatatom -169 994 5 0 0 0 - - -;
#X floatatom -40 994 5 0 0 0 - - -;
#X floatatom 89 995 5 0 0 0 - - -;
#X msg -163 951 1;
#X msg -266 932 0;
#X msg -24 950 2;
#X msg 97 952 3;
#X obj 619 865 loadbang;
#X msg 59 911 bang;
#X msg 219 950 4;
#X msg 358 949 5;
#X msg 479 951 6;
#X floatatom 214 991 5 0 0 0 - - -;
#X floatatom 344 994 5 0 0 0 - - -;
#X floatatom 475 993 5 0 0 0 - - -;
#X obj -268 22 inlet;
#X obj -298 972 tabread sectionseven;
#X obj -169 972 tabread sectionseven;
#X obj -39 971 tabread sectionseven;
#X obj 90 974 tabread sectionseven;
#X obj 213 971 tabread sectionseven;
#X obj 343 969 tabread sectionseven;
#X obj 472 972 tabread sectionseven;
#X obj 118 783 r sec;
#X obj 174 769 t l l b;
#X obj 320 820 t l l;
#X obj 320 779 del 250;
#X msg 320 799 list might get lost;
#X obj 174 892 print TIGHT;
#X obj 310 883 print LOOSE;
#X obj 174 873 pipe s 1500;
#X obj 174 845 drip 200 flush;
#X obj 310 854 drip 200;
#X floatatom 652 986 5 0 0 0 - - -;
#X floatatom 777 982 5 0 0 0 - - -;
#X floatatom 907 985 5 0 0 0 - - -;
#X floatatom 1038 984 5 0 0 0 - - -;
#X msg 660 943 7;
#X msg 782 941 8;
#X msg 921 940 9;
#X msg 1042 942 10;
#X obj 652 964 tabread sectionseven;
#X obj 776 962 tabread sectionseven;
#X obj 906 961 tabread sectionseven;
#X obj 1034 963 tabread sectionseven;
#X floatatom -186 1030 5 0 0 0 - - dur2;
#X floatatom -53 1025 5 0 0 0 - - loudness2;
#X floatatom -16 1025 0 0 0 0 - loudness2 -;
#X floatatom 210 1029 5 0 0 0 - - -;
#X floatatom 327 1030 5 0 0 0 - - mode2;
#X floatatom 458 1029 5 0 0 0 - - key2;
#X floatatom 573 1030 5 0 0 0 - - keyconf2;
#X floatatom 702 1031 5 0 0 0 - - modeconf2;
#X floatatom 827 1027 5 0 0 0 - - modeconf2;
#X floatatom 957 1030 5 0 0 0 - - timesigconf2;
#X floatatom 98 1043 5 0 0 0 - - tempo2;
#X floatatom -274 1032 5 0 0 0 - - -;
#X floatatom -146 1029 5 0 0 0 - - -;
#X floatatom 146 1033 5 0 0 0 - - -;
#X msg 576 1140 0 0 0 0 0 0 0 0 0 0 0;
#X floatatom 378 1028 5 0 0 0 - - -;
#X floatatom 495 1028 5 0 0 0 - - -;
#X floatatom 610 1027 5 0 0 0 - - -;
#X floatatom 739 1030 5 0 0 0 - - -;
#X floatatom 863 1029 5 0 0 0 - - -;
#X obj 578 1094 pack \$1 \$2 \$3 \$4 \$5 \$6 \$7 \$8 \$9 \$10 \$11
;
#X floatatom 995 1030 5 0 0 0 - - -;
#X msg 578 1115 set \$1 \$2 \$3 \$4 \$5 \$6 \$7 \$8 \$9 \$10 \$11;
#X obj 517 1129 s s7;
#X connect 0 0 3 0;
#X connect 3 0 21 0;
#X connect 5 0 6 0;
#X connect 8 0 12 0;
#X connect 8 0 17 0;
#X connect 17 0 14 0;
#X connect 17 1 15 0;
#X connect 17 2 16 0;
#X connect 18 0 0 0;
#X connect 21 0 25 0;
#X connect 22 0 26 0;
#X connect 23 0 24 0;
#X connect 24 0 7 0;
#X connect 25 0 22 0;
#X connect 26 0 27 0;
#X connect 27 0 28 0;
#X connect 28 12 29 0;
#X connect 29 0 30 0;
#X connect 30 0 32 0;
#X connect 31 1 43 0;
#X connect 32 0 33 0;
#X connect 33 0 57 0;
#X connect 33 0 60 0;
#X connect 33 0 94 0;
#X connect 38 0 54 0;
#X connect 39 0 40 0;
#X connect 39 1 41 0;
#X connect 39 2 42 0;
#X connect 44 0 34 0;
#X connect 45 0 46 0;
#X connect 50 0 47 0;
#X connect 50 1 48 0;
#X connect 50 2 49 0;
#X connect 51 0 55 0;
#X connect 51 0 59 0;
#X connect 52 0 53 0;
#X connect 55 0 11 0;
#X connect 55 0 45 0;
#X connect 59 0 57 0;
#X connect 61 0 62 0;
#X connect 62 0 64 0;
#X connect 63 0 67 1;
#X connect 64 0 65 0;
#X connect 64 0 63 0;
#X connect 65 0 64 1;
#X connect 66 0 64 0;
#X connect 68 0 18 0;
#X connect 69 0 126 0;
#X connect 70 0 127 0;
#X connect 71 0 135 2;
#X connect 72 0 128 0;
#X connect 73 0 87 0;
#X connect 74 0 86 0;
#X connect 75 0 88 0;
#X connect 76 0 89 0;
#X connect 77 0 76 0;
#X connect 77 0 75 0;
#X connect 77 0 73 0;
#X connect 77 0 74 0;
#X connect 77 0 79 0;
#X connect 77 0 80 0;
#X connect 77 0 81 0;
#X connect 77 0 107 0;
#X connect 77 0 108 0;
#X connect 77 0 109 0;
#X connect 77 0 110 0;
#X connect 78 0 77 0;
#X connect 79 0 90 0;
#X connect 80 0 91 0;
#X connect 81 0 92 0;
#X connect 82 0 118 0;
#X connect 83 0 130 0;
#X connect 84 0 131 0;
#X connect 85 0 78 0;
#X connect 86 0 69 0;
#X connect 87 0 70 0;
#X connect 88 0 71 0;
#X connect 89 0 72 0;
#X connect 91 0 83 0;
#X connect 92 0 84 0;
#X connect 93 0 78 0;
#X connect 94 0 101 0;
#X connect 94 1 102 0;
#X connect 94 2 96 0;
#X connect 95 0 101 0;
#X connect 95 1 102 0;
#X connect 96 0 97 0;
#X connect 97 0 95 0;
#X connect 100 0 98 0;
#X connect 101 0 100 0;
#X connect 102 0 67 0;
#X connect 102 0 61 0;
#X connect 103 0 132 0;
#X connect 104 0 133 0;
#X connect 105 0 134 0;
#X connect 106 0 136 0;
#X connect 107 0 111 0;
#X connect 108 0 112 0;
#X connect 109 0 113 0;
#X connect 110 0 114 0;
#X connect 111 0 103 0;
#X connect 113 0 105 0;
#X connect 114 0 106 0;
#X connect 117 0 135 2;
#X connect 118 0 135 4;
#X connect 126 0 135 0;
#X connect 127 0 135 1;
#X connect 128 0 135 3;
#X connect 130 0 135 5;
#X connect 131 0 135 6;
#X connect 132 0 135 7;
#X connect 133 0 135 8;
#X connect 134 0 135 9;
#X connect 135 0 137 0;
#X connect 136 0 135 10;
#X connect 137 0 129 0;
#X connect 137 0 138 0;
#X restore 1341 758 pd section7;
#X obj 986 773 bng 15 250 50 0 empty empty empty 17 7 0 10 -262144
-1 -1;
#X obj 1048 806 s sec;
#X text 311 787 duration;
#X text 367 787 confidence;
#X text 432 787 loudness;
#X text 620 787 mode;
#X text 518 787 tempo confidence;
#X text 651 787 key;
#X text 486 787 tempo;
#X text 607 278 pitches;
#X text 609 376 timbres;
#X msg 1122 1102 set \$1-pitches_array;
#X msg 1533 1323 set \$1-timbres_array;
#X obj 154 81 s track;
#X obj 1018 1323 r track;
#X floatatom 414 209 5 0 0 0 - pitches -;
#X floatatom 414 306 5 0 0 0 - timbres -;
#N canvas 159 671 455 612 features 0;
#X obj 16 40 bytes2any 128 -1;
#X obj 18 66 s danceability;
#X obj 17 18 udpreceive 6264;
#X obj 15 120 bytes2any 128 -1;
#X obj 18 196 bytes2any 128 -1;
#X obj 18 264 bytes2any 128 -1;
#X obj 20 343 bytes2any 128 -1;
#X obj 16 97 udpreceive 6265;
#X obj 19 174 udpreceive 6266;
#X obj 19 242 udpreceive 6267;
#X obj 21 321 udpreceive 6268;
#X obj 175 47 bytes2any 128 -1;
#X obj 174 127 bytes2any 128 -1;
#X obj 177 203 bytes2any 128 -1;
#X obj 177 271 bytes2any 128 -1;
#X obj 179 350 bytes2any 128 -1;
#X obj 179 25 udpreceive 6269;
#X obj 175 104 udpreceive 6270;
#X obj 178 181 udpreceive 6271;
#X obj 178 249 udpreceive 6272;
#X obj 180 328 udpreceive 6273;
#X obj 17 146 s acousticness;
#X obj 19 222 s energy;
#X obj 20 290 s instrumentalness;
#X obj 22 369 s liveness;
#X obj 177 73 s loudness;
#X obj 176 153 s speechiness;
#X obj 179 229 s valence;
#X obj 179 297 s mode;
#X obj 181 376 s tempo;
#X connect 0 0 1 0;
#X connect 2 0 0 0;
#X connect 3 0 21 0;
#X connect 4 0 22 0;
#X connect 5 0 23 0;
#X connect 6 0 24 0;
#X connect 7 0 3 0;
#X connect 8 0 4 0;
#X connect 9 0 5 0;
#X connect 10 0 6 0;
#X connect 11 0 25 0;
#X connect 12 0 26 0;
#X connect 13 0 27 0;
#X connect 14 0 28 0;
#X connect 15 0 29 0;
#X connect 16 0 11 0;
#X connect 17 0 12 0;
#X connect 18 0 13 0;
#X connect 19 0 14 0;
#X connect 20 0 15 0;
#X restore 1032 1135 pd features;
#X text 186 444 danceability;
#X floatatom 151 444 5 0 0 0 - - -;
#X obj 154 428 hsl 128 15 0 1 0 0 empty danceability empty -2 -8 0
10 -262144 -1 -1 3874 1;
#X floatatom 151 482 5 0 0 0 - - -;
#X obj 154 466 hsl 128 15 0 1 0 0 empty acousticness empty -2 -8 0
10 -262144 -1 -1 12408 1;
#X floatatom 151 520 5 0 0 0 - - -;
#X obj 154 504 hsl 128 15 0 1 0 0 empty energy empty -2 -8 0 10 -262144
-1 -1 4813 1;
#X floatatom 150 558 5 0 0 0 - - -;
#X obj 153 542 hsl 128 15 0 1 0 0 empty instrumentalness empty -2 -8
0 10 -262144 -1 -1 11316 1;
#X floatatom 150 595 5 0 0 0 - - -;
#X obj 153 579 hsl 128 15 0 1 0 0 empty liveness empty -2 -8 0 10 -262144
-1 -1 1283 1;
#X text 186 482 acousticness;
#X text 187 520 energy;
#X text 185 595 liveness;
#X floatatom 151 632 5 0 0 0 - - -;
#X obj 154 616 hsl 128 15 -20 20 0 0 empty loudness empty -2 -8 0 10
-262144 -1 -1 3480 1;
#X floatatom 151 670 5 0 0 0 - - -;
#X obj 154 654 hsl 128 15 0 1 0 0 empty speechiness empty -2 -8 0 10
-262144 -1 -1 425 1;
#X floatatom 151 708 5 0 0 0 - - -;
#X obj 154 692 hsl 128 15 0 1 0 0 empty valence empty -2 -8 0 10 -262144
-1 -1 8115 1;
#X floatatom 150 746 5 0 0 0 - - -;
#X obj 153 730 hsl 128 15 0 127 0 0 empty mode empty -2 -8 0 10 -262144
-1 -1 100 1;
#X floatatom 150 783 5 0 0 0 - - -;
#X obj 153 767 hsl 128 15 0 250 0 0 empty tempo empty -2 -8 0 10 -262144
-1 -1 9711 1;
#X text 186 632 loudness;
#X text 186 670 speechiness;
#X text 186 708 valence;
#X text 185 746 mode;
#X text 185 783 tempo;
#X floatatom 148 875 5 0 0 0 - time_signature -;
#X text 185 558 instrumentalness;
#X text 183 875 time signature;
#X obj 1089 1289 tabwrite pitches_array;
#X msg 1203 1352 calon lan;
#X msg 1011 771 connect;
#X msg 1248 1393 connect 127.0.0.1 3232;
#X obj 1106 1412 udpsend;
#X symbolatom 1122 1321 10 0 0 0 - - -;
#X floatatom 1093 1374 5 0 0 0 - - -;
#X obj 1298 1369 loadbang;
#X obj 971 1360 any2bytes 128 -1;
#X obj 318 605 r s1;
#X obj 316 631 r s2;
#X msg 348 630 0 0 0 0 0 0 0 0 0 0 0;
#X obj 315 656 r s3;
#X msg 348 656 0 0 0 0 0 0 0 0 0 0 0;
#X msg 348 682 0 0 0 0 0 0 0 0 0 0 0;
#X obj 316 682 r s4;
#X obj 313 709 r s5;
#X msg 347 709 0 0 0 0 0 0 0 0 0 0 0;
#X obj 316 737 r s6;
#X msg 346 738 0 0 0 0 0 0 0 0 0 0 0;
#X obj 314 766 r s7;
#X msg 347 766 0 0 0 0 0 0 0 0 0 0 0;
#X floatatom 2692 1364 5 0 0 0 - - -;
#X floatatom 2654 1364 5 0 0 0 - - -;
#X floatatom 2728 1364 5 0 0 0 - - -;
#X floatatom 2728 1290 5 0 0 0 - - -;
#X obj 2804 1265 tabwrite notes;
#X obj 2877 1230 counter 12;
#X obj 2687 1099 t b;
#X floatatom 2898 1257 5 0 0 0 - - -;
#X floatatom 2806 1241 5 0 0 0 - - -;
#N canvas 0 22 450 278 (subpatch) 0;
#X array notes 12 float 2;
#X coords 0 0 12 127 200 40 1 0 0;
#X restore 439 442 graph;
#X floatatom 2805 1302 5 0 0 0 - - -;
#X obj 2804 1326 tabwrite notesb;
#X floatatom 2807 1351 5 0 0 0 - - -;
#X obj 2806 1375 tabwrite notesc;
#N canvas 0 22 450 278 (subpatch) 0;
#X array notesb 12 float 2;
#X coords 0 0 12 127 200 40 1 0 0;
#X restore 439 499 graph;
#N canvas 0 22 450 278 (subpatch) 0;
#X array notesc 12 float 2;
#X coords 0 0 12 127 200 30 1 0 0;
#X restore 439 554 graph;
#X obj 640 444 vsl 15 140 0 127 0 0 empty vel empty 0 -9 0 10 -262144
-1 -1 0 1;
#X obj 2719 1251 s vel;
#X obj 1095 732 r track;
#X obj 1122 759 del 5000;
#X obj 1120 787 del 8000;
#X obj 2786 1113 line;
#X obj 2789 1091 \$1 \$1;
#X msg 2836 1084 250;
#X floatatom 2704 1033 5 0 0 0 - - -;
#X floatatom 2621 1078 5 0 0 0 - - -;
#X obj 2702 980 * 200;
#X floatatom 2771 1032 5 0 0 0 - - -;
#X text 1408 828 DATA SMART REMIXING SIMON KILSHAW 2020;
#X msg 2090 806 1;
#X msg 349 605 0;
#X obj 987 745 bng 15 250 50 0 empty go empty 17 7 0 10 -262144 -1
-1;
#X obj 207 82 bng 15 250 50 0 go empty empty 17 7 0 10 -262144 -1 -1
;
#X msg 2621 963 100;
#X obj 2850 1064 loadbang;
#X obj 451 209 hsl 200 15 -100 100 0 0 empty timbres empty -2 -8 0
10 -262144 -1 -1 6479 1;
#X obj 451 308 hsl 200 15 0 127 0 0 empty pitchess empty -2 -8 0 10
-262144 -1 -1 1432 1;
#X text 314 584 SEGMENTS;
#X symbolatom 260 174 65 0 0 0 - url -;
#X symbolatom 196 148 40 0 0 0 - namer -;
#X symbolatom 439 148 35 0 0 0 - namerb -;
#X symbolatom 588 60 10 0 0 0 - thekey -;
#X symbolatom 588 80 10 0 0 0 - keystate -;
#X floatatom 587 26 10 0 0 0 - tempo -;
#X text 630 8 BPM;
#X text 629 43 KEY;
#N canvas 101 242 477 604 ibfo 0;
#X obj 100 27 udpreceive 6275;
#X obj 222 52 bytes2any 128 -1;
#X obj 239 32 udpreceive 6276;
#X obj 307 85 print;
#X obj 327 140 symbol fromlist;
#X symbolatom 121 178 80 0 0 0 - - url;
#X obj 51 125 symbol fromlist;
#X symbolatom 45 233 80 0 0 0 - - namer;
#X obj 99 48 bytes2any 128;
#X symbolatom 46 253 80 0 0 0 - - namerb;
#X obj 20 95 print b;
#X obj 17 69 unpack s s;
#X obj 160 108 print c;
#X obj 51 207 unpack s s s;
#X symbolatom 45 273 80 0 0 0 - - namerc;
#X obj 138 332 udpreceive 6277;
#X obj 123 361 unpack s s;
#X symbolatom 198 400 10 0 0 0 - - thekey;
#X symbolatom 266 400 10 0 0 0 - - keystate;
#X obj 208 354 bytes2any 128;
#X obj 190 456 pack s s;
#X obj 332 370 r tempo;
#X floatatom 333 399 5 0 0 0 - - -;
#X obj 357 494 udpreceive 6278;
#X obj 359 519 bytes2any 128;
#X floatatom 244 543 5 0 0 0 - - -;
#X text 221 512 comment;
#X symbolatom 381 570 10 0 0 0 - - moder;
#X obj 301 563 unpack s;
#X connect 0 0 8 0;
#X connect 1 0 3 0;
#X connect 1 0 4 0;
#X connect 2 0 1 0;
#X connect 4 0 5 0;
#X connect 8 0 6 0;
#X connect 8 0 11 0;
#X connect 8 0 13 0;
#X connect 11 0 10 0;
#X connect 11 1 12 0;
#X connect 13 0 7 0;
#X connect 13 1 9 0;
#X connect 15 0 19 0;
#X connect 16 0 17 0;
#X connect 16 0 20 0;
#X connect 16 1 18 0;
#X connect 16 1 20 1;
#X connect 19 0 16 0;
#X connect 21 0 22 0;
#X connect 23 0 24 0;
#X connect 24 0 28 0;
#X connect 28 0 27 0;
#X restore 1023 1175 pd ibfo;
#X text 625 97 MODE;
#X text 2147 274 SECTION DNA PROFILE;
#X text 152 148 Artist;
#X text 154 175 Spotify url;
#X text 571 421 Remixed output;
#X text 148 409 Global features;
#X symbolatom 587 116 10 0 0 0 - moder -;
#X text 153 21 QUERY TRACK/ARTIST PULL REQUEST;
#X msg 154 46 calon lan;
#X text 152 110 simon kilshaw;
#X obj 2633 598 notein;
#X floatatom 2595 624 5 0 0 0 - - -;
#X floatatom 2640 623 5 0 0 0 - - -;
#X floatatom 2684 623 5 0 0 0 - - -;
#X obj 2428 589 ctlin;
#X floatatom 2469 638 5 0 0 0 - - -;
#X floatatom 2435 638 5 0 0 0 - - -;
#X floatatom 2403 642 5 0 0 0 - - -;
#X obj 2416 703 sel 127;
#X obj 2320 683 ctlin 109 1;
#X connect 0 0 1 0;
#X connect 1 0 2 0;
#X connect 2 0 4 0;
#X connect 2 0 25 0;
#X connect 2 0 106 0;
#X connect 3 0 35 1;
#X connect 3 0 78 1;
#X connect 4 0 6 0;
#X connect 5 0 3 0;
#X connect 5 0 26 0;
#X connect 6 0 5 0;
#X connect 7 0 6 1;
#X connect 8 0 9 0;
#X connect 8 0 105 0;
#X connect 9 0 11 0;
#X connect 9 0 30 0;
#X connect 9 0 79 0;
#X connect 10 0 13 0;
#X connect 10 0 27 0;
#X connect 11 0 10 0;
#X connect 12 0 8 0;
#X connect 13 0 36 0;
#X connect 14 0 11 1;
#X connect 17 0 177 1;
#X connect 22 0 23 0;
#X connect 23 0 138 0;
#X connect 25 0 31 0;
#X connect 26 0 18 0;
#X connect 26 0 177 0;
#X connect 28 0 29 0;
#X connect 29 0 139 0;
#X connect 30 0 32 0;
#X connect 31 0 17 0;
#X connect 31 0 108 0;
#X connect 32 0 27 1;
#X connect 32 0 43 0;
#X connect 33 0 7 0;
#X connect 34 0 14 0;
#X connect 35 0 41 0;
#X connect 36 0 39 0;
#X connect 37 0 45 0;
#X connect 37 0 51 0;
#X connect 37 0 58 0;
#X connect 37 0 64 0;
#X connect 38 0 44 0;
#X connect 41 0 38 0;
#X connect 42 0 40 0;
#X connect 43 0 107 0;
#X connect 44 0 40 0;
#X connect 44 0 42 0;
#X connect 44 0 57 0;
#X connect 44 1 40 1;
#X connect 44 1 57 1;
#X connect 45 0 35 0;
#X connect 46 0 48 0;
#X connect 47 0 50 0;
#X connect 48 0 47 0;
#X connect 49 0 52 0;
#X connect 49 0 56 0;
#X connect 50 0 49 0;
#X connect 50 0 52 0;
#X connect 50 0 71 0;
#X connect 50 1 52 1;
#X connect 50 1 56 1;
#X connect 50 1 71 1;
#X connect 51 0 46 0;
#X connect 54 0 55 0;
#X connect 54 1 55 1;
#X connect 58 0 63 0;
#X connect 58 0 59 0;
#X connect 58 0 60 0;
#X connect 58 0 69 0;
#X connect 59 0 61 0;
#X connect 60 0 62 0;
#X connect 61 0 54 0;
#X connect 62 0 54 0;
#X connect 63 0 54 0;
#X connect 64 0 67 0;
#X connect 65 0 66 0;
#X connect 65 1 66 1;
#X connect 67 0 65 0;
#X connect 68 0 54 0;
#X connect 69 0 68 0;
#X connect 70 0 54 0;
#X connect 75 0 78 0;
#X connect 75 0 84 0;
#X connect 75 0 97 0;
#X connect 75 0 86 0;
#X connect 75 0 232 0;
#X connect 76 0 75 0;
#X connect 76 0 91 0;
#X connect 77 0 104 0;
#X connect 78 0 77 0;
#X connect 78 0 99 0;
#X connect 79 0 103 0;
#X connect 80 0 74 0;
#X connect 80 0 201 0;
#X connect 81 0 80 1;
#X connect 82 0 80 1;
#X connect 83 0 82 0;
#X connect 83 1 81 0;
#X connect 84 0 83 0;
#X connect 85 0 225 1;
#X connect 85 0 226 0;
#X connect 86 0 85 0;
#X connect 87 0 86 1;
#X connect 88 0 86 1;
#X connect 89 0 86 1;
#X connect 90 0 86 1;
#X connect 91 0 92 0;
#X connect 92 0 93 0;
#X connect 92 0 94 0;
#X connect 93 0 90 0;
#X connect 93 1 87 0;
#X connect 93 2 88 0;
#X connect 93 3 89 0;
#X connect 95 0 98 0;
#X connect 95 0 112 0;
#X connect 96 0 95 1;
#X connect 97 0 96 0;
#X connect 98 0 74 0;
#X connect 98 0 199 0;
#X connect 99 0 100 0;
#X connect 99 1 101 0;
#X connect 103 0 102 0;
#X connect 103 0 104 1;
#X connect 104 0 80 0;
#X connect 104 0 95 0;
#X connect 104 0 205 0;
#X connect 104 1 74 1;
#X connect 104 1 202 0;
#X connect 110 0 22 0;
#X connect 111 0 28 0;
#X connect 112 0 74 0;
#X connect 112 0 200 0;
#X connect 127 0 128 0;
#X connect 127 0 228 0;
#X connect 138 0 177 0;
#X connect 139 0 27 0;
#X connect 141 0 185 0;
#X connect 147 0 146 0;
#X connect 149 0 148 0;
#X connect 151 0 150 0;
#X connect 153 0 152 0;
#X connect 155 0 154 0;
#X connect 160 0 159 0;
#X connect 162 0 161 0;
#X connect 164 0 163 0;
#X connect 166 0 165 0;
#X connect 168 0 167 0;
#X connect 178 0 185 0;
#X connect 180 0 181 0;
#X connect 182 0 181 0;
#X connect 183 0 181 0;
#X connect 184 0 180 0;
#X connect 185 0 181 0;
#X connect 186 0 229 0;
#X connect 187 0 188 0;
#X connect 189 0 190 0;
#X connect 192 0 191 0;
#X connect 193 0 194 0;
#X connect 195 0 196 0;
#X connect 197 0 198 0;
#X connect 199 0 209 0;
#X connect 200 0 207 0;
#X connect 201 0 211 0;
#X connect 202 0 221 0;
#X connect 204 0 206 0;
#X connect 205 0 204 0;
#X connect 206 0 203 1;
#X connect 206 0 210 1;
#X connect 206 0 212 1;
#X connect 207 0 203 0;
#X connect 209 0 210 0;
#X connect 211 0 212 0;
#X connect 217 0 218 0;
#X connect 217 0 219 0;
#X connect 218 0 127 0;
#X connect 219 0 127 0;
#X connect 220 0 216 0;
#X connect 221 0 220 0;
#X connect 222 0 221 1;
#X connect 223 0 224 0;
#X connect 224 0 75 1;
#X connect 225 0 223 0;
#X connect 228 0 76 0;
#X connect 230 0 127 0;
#X connect 232 0 225 0;
#X connect 233 0 222 0;
#X connect 254 0 140 0;
#X connect 256 0 257 0;
#X connect 256 1 258 0;
#X connect 256 2 259 0;
#X connect 260 0 263 0;
#X connect 260 1 262 0;
#X connect 260 2 261 0;
#X connect 264 0 76 0;
#X connect 265 0 264 0;
